<svg width="60" height="60" viewBox="0 0 60 60" fill="none" xmlns="http://www.w3.org/2000/svg">
	<g opacity="1">
		<mask id="mask0_30_108" style="mask-type:alpha" maskUnits="userSpaceOnUse" x="0" y="0" width="60" height="60">
			<circle cx="30" cy="30" r="30" fill="#F9F2F2" />
		</mask>
		<g mask="url(#mask0_30_108)">
			<path d="M28.409 9.38568C26.117 9.8818 23.9341 11.0526 22.1977 12.6997C20.4018 14.3964 19.2905 16.0733 18.4472 18.3455C17.6534 20.4689 17.4153 21.977 17.2962 25.4796C17.1771 29.1409 16.939 31.0559 16.2941 33.4869C15.6987 35.7591 14.7462 37.6939 13.6052 38.9143C13.119 39.4601 12.99 39.7875 13.1289 40.2142C13.2678 40.6408 13.5853 40.8591 14.8157 41.3949C16.6314 42.1887 19.2211 42.9626 21.3444 43.3397C21.7512 43.4091 22.0985 43.5084 22.1183 43.5679C22.1382 43.6274 22.0588 44.0541 21.9298 44.5204L21.7115 45.3638L17.1871 46.5049C12.6328 47.6559 11.7299 47.9436 10.4995 48.6679C7.98925 50.1464 6.09413 52.4979 5.20114 55.2266C4.68519 56.8042 4.45698 58.8482 4.7348 59.384C5.08207 60.0488 2.94882 59.9992 29.9965 59.9992C57.0442 59.9992 54.9109 60.0488 55.2582 59.384C55.3971 59.126 55.407 58.8978 55.3574 58.1933C55.0796 54.1847 52.9265 50.6921 49.4934 48.6679C48.2631 47.9436 47.3602 47.6559 42.8059 46.5049L38.2815 45.3638L38.0632 44.5204C37.9342 44.0541 37.8548 43.6274 37.8747 43.5679C37.8945 43.5084 38.2418 43.4091 38.6486 43.3397C40.6628 42.9726 43.1731 42.2383 44.959 41.4743C46.3581 40.879 46.7252 40.6408 46.8542 40.2241C47.003 39.7875 46.8839 39.4601 46.3878 38.9143C44.0561 36.3941 42.7067 31.2742 42.6968 24.9736C42.6869 18.8218 41.5954 14.4758 39.5912 12.6104C38.7676 11.8464 37.9937 11.509 36.7336 11.3602L35.7017 11.2411L35.0568 10.7153C33.8066 9.68335 32.6953 9.31623 30.5918 9.24677C29.5202 9.20708 29.0837 9.23685 28.409 9.38568Z" fill="white" />
			<circle cx="30" cy="30" r="29" stroke="white" stroke-width="2" />
		</g>
	</g>
</svg>