<svg width="60" height="60" viewBox="0 0 60 60" fill="none" xmlns="http://www.w3.org/2000/svg">
	<path d="M29.8945 34.6479C36.7203 34.6479 42.2536 29.1145 42.2536 22.2888C42.2536 15.463 36.7203 9.92963 29.8945 9.92963C23.0687 9.92963 17.5354 15.463 17.5354 22.2888C17.5354 29.1145 23.0687 34.6479 29.8945 34.6479Z" fill="white" />
	<mask id="mask0_30_112" style="mask-type:alpha" maskUnits="userSpaceOnUse" x="0" y="0" width="60" height="60">
		<path d="M30 60C46.5685 60 60 46.5685 60 30C60 13.4315 46.5685 0 30 0C13.4315 0 0 13.4315 0 30C0 46.5685 13.4315 60 30 60Z" fill="#F9F2F2" />
	</mask>
	<g mask="url(#mask0_30_112)">
		<path d="M29.9998 78.75C42.1304 78.75 51.9641 68.9162 51.9641 56.7857C51.9641 44.6552 42.1304 34.8214 29.9998 34.8214C17.8693 34.8214 8.03555 44.6552 8.03555 56.7857C8.03555 68.9162 17.8693 78.75 29.9998 78.75Z" fill="white" />
	</g>
	<path d="M59 30C59 46.0163 46.0163 59 30 59C13.9837 59 1 46.0163 1 30C1 13.9837 13.9837 1 30 1C46.0163 1 59 13.9837 59 30Z" stroke="#DDDDDD" stroke-width="2" />
</svg>
	