<svg width="37" height="37" viewBox="0 0 37 37" fill="none" xmlns="http://www.w3.org/2000/svg">
<path fill-rule="evenodd" clip-rule="evenodd" d="M10.775 0.11C12.73 0.02 13.3533 0 18.3333 0C23.3133 0 23.9367 0.0216666 25.89 0.11C27.8433 0.198333 29.1767 0.51 30.3433 0.961667C31.565 1.42333 32.6733 2.145 33.59 3.07833C34.5233 3.99333 35.2433 5.1 35.7033 6.32333C36.1567 7.49 36.4667 8.82333 36.5567 10.7733C36.6467 12.7317 36.6667 13.355 36.6667 18.3333C36.6667 23.3133 36.645 23.9367 36.5567 25.8917C36.4683 27.8417 36.1567 29.175 35.7033 30.3417C35.2433 31.5652 34.5221 32.6737 33.59 33.59C32.6733 34.5233 31.565 35.2433 30.3433 35.7033C29.1767 36.1567 27.8433 36.4667 25.8933 36.5567C23.9367 36.6467 23.3133 36.6667 18.3333 36.6667C13.3533 36.6667 12.73 36.645 10.775 36.5567C8.825 36.4683 7.49167 36.1567 6.325 35.7033C5.10153 35.2433 3.99303 34.5221 3.07667 33.59C2.14397 32.6744 1.42219 31.5665 0.961667 30.3433C0.51 29.1767 0.2 27.8433 0.11 25.8933C0.02 23.935 0 23.3117 0 18.3333C0 13.3533 0.0216666 12.73 0.11 10.7767C0.198333 8.82333 0.51 7.49 0.961667 6.32333C1.42287 5.10014 2.1452 3.99219 3.07833 3.07667C3.9934 2.14417 5.10079 1.42241 6.32333 0.961667C7.49 0.51 8.82333 0.2 10.7733 0.11H10.775ZM25.7417 3.41C23.8083 3.32167 23.2283 3.30333 18.3333 3.30333C13.4383 3.30333 12.8583 3.32167 10.925 3.41C9.13667 3.49167 8.16667 3.79 7.52 4.04167C6.665 4.375 6.05333 4.77 5.41167 5.41167C4.80341 6.00342 4.3353 6.7238 4.04167 7.52C3.79 8.16667 3.49167 9.13667 3.41 10.925C3.32167 12.8583 3.30333 13.4383 3.30333 18.3333C3.30333 23.2283 3.32167 23.8083 3.41 25.7417C3.49167 27.53 3.79 28.5 4.04167 29.1467C4.335 29.9417 4.80333 30.6633 5.41167 31.255C6.00333 31.8633 6.725 32.3317 7.52 32.625C8.16667 32.8767 9.13667 33.175 10.925 33.2567C12.8583 33.345 13.4367 33.3633 18.3333 33.3633C23.23 33.3633 23.8083 33.345 25.7417 33.2567C27.53 33.175 28.5 32.8767 29.1467 32.625C30.0017 32.2917 30.6133 31.8967 31.255 31.255C31.8633 30.6633 32.3317 29.9417 32.625 29.1467C32.8767 28.5 33.175 27.53 33.2567 25.7417C33.345 23.8083 33.3633 23.2283 33.3633 18.3333C33.3633 13.4383 33.345 12.8583 33.2567 10.925C33.175 9.13667 32.8767 8.16667 32.625 7.52C32.2917 6.665 31.8967 6.05333 31.255 5.41167C30.6632 4.80345 29.9428 4.33535 29.1467 4.04167C28.5 3.79 27.53 3.49167 25.7417 3.41V3.41ZM15.9917 23.985C17.2994 24.5294 18.7556 24.6029 20.1115 24.1929C21.4675 23.7829 22.639 22.9149 23.426 21.7371C24.213 20.5593 24.5668 19.1448 24.4267 17.7352C24.2867 16.3256 23.6617 15.0083 22.6583 14.0083C22.0187 13.3691 21.2454 12.8797 20.3939 12.5752C19.5424 12.2708 18.634 12.1589 17.7342 12.2477C16.8343 12.3365 15.9653 12.6236 15.1897 13.0885C14.4141 13.5535 13.7512 14.1846 13.2488 14.9364C12.7464 15.6883 12.417 16.5421 12.2842 17.4366C12.1514 18.3311 12.2186 19.2438 12.4809 20.1092C12.7432 20.9746 13.1941 21.771 13.8012 22.4412C14.4083 23.1114 15.1564 23.6386 15.9917 23.985ZM11.67 11.67C12.545 10.795 13.5839 10.1008 14.7272 9.62727C15.8705 9.1537 17.0958 8.90996 18.3333 8.90996C19.5708 8.90996 20.7962 9.1537 21.9395 9.62727C23.0828 10.1008 24.1216 10.795 24.9967 11.67C25.8717 12.545 26.5658 13.5839 27.0394 14.7272C27.513 15.8705 27.7567 17.0958 27.7567 18.3333C27.7567 19.5708 27.513 20.7962 27.0394 21.9395C26.5658 23.0828 25.8717 24.1216 24.9967 24.9967C23.2294 26.7639 20.8326 27.7567 18.3333 27.7567C15.8341 27.7567 13.4372 26.7639 11.67 24.9967C9.90277 23.2294 8.90996 20.8326 8.90996 18.3333C8.90996 15.8341 9.90277 13.4372 11.67 11.67V11.67ZM29.8467 10.3133C30.0635 10.1088 30.2371 9.8628 30.3572 9.58996C30.4772 9.31711 30.5413 9.02295 30.5457 8.72488C30.55 8.42682 30.4945 8.13091 30.3825 7.85468C30.2704 7.57845 30.1041 7.32752 29.8933 7.11673C29.6825 6.90595 29.4315 6.73959 29.1553 6.62753C28.8791 6.51546 28.5832 6.45996 28.2851 6.4643C27.987 6.46865 27.6929 6.53276 27.42 6.65283C27.1472 6.7729 26.9012 6.94649 26.6967 7.16333C26.2988 7.58505 26.081 8.1452 26.0895 8.72488C26.098 9.30456 26.332 9.85813 26.7419 10.2681C27.1519 10.678 27.7054 10.912 28.2851 10.9205C28.8648 10.9289 29.4249 10.7111 29.8467 10.3133V10.3133Z" fill="white"/>
</svg>
