<svg width="40" height="40" viewBox="0 0 40 40" fill="none" xmlns="http://www.w3.org/2000/svg">
<rect x="0.25" y="0.25" width="39.5" height="39.5" rx="7.75" stroke="#D20DCD" stroke-width="0.5"/>
<path d="M20 30C19.4696 30 18.9609 29.7893 18.5858 29.4142C18.2107 29.0391 18 28.5304 18 28H22C22 28.5304 21.7893 29.0391 21.4142 29.4142C21.0391 29.7893 20.5304 30 20 30ZM28 27H12V25L14 24V18.5C13.9473 17.0891 14.2659 15.6891 14.924 14.44C15.2478 13.8673 15.6894 13.3697 16.2197 12.9802C16.7499 12.5906 17.3567 12.3179 18 12.18V10H21.646C21.0125 10.708 20.6193 11.5984 20.5228 12.5435C20.4263 13.4887 20.6314 14.4401 21.1087 15.2615C21.586 16.083 22.3111 16.7323 23.18 17.1164C24.049 17.5006 25.0172 17.5998 25.946 17.4C25.981 17.757 25.998 18.127 25.998 18.5V24L27.998 25V27H28ZM25 16C24.606 15.9993 24.2161 15.9211 23.8523 15.7697C23.4886 15.6184 23.1583 15.3968 22.8801 15.1178C22.602 14.8387 22.3816 14.5077 22.2314 14.1434C22.0813 13.7792 22.0043 13.389 22.005 12.995C22.0057 12.601 22.0839 12.2111 22.2353 11.8473C22.3866 11.4836 22.6082 11.1533 22.8872 10.8751C23.1663 10.597 23.4973 10.3766 23.8616 10.2265C24.2258 10.0763 24.616 9.99935 25.01 10C25.8056 10.0013 26.5682 10.3187 27.1299 10.8822C27.6915 11.4458 28.0063 12.2094 28.005 13.005C28.0037 13.8007 27.6863 14.5632 27.1228 15.1249C26.5592 15.6865 25.7956 16.0013 25 16Z" fill="white"/>
<circle cx="25" cy="13" r="3" fill="#D20DCD"/>
</svg>
